# xmcd CD database file
#
# Track frame offsets:
#	150
#	15151
#	36289
#	48592
#	59926
#	90392
#	97409
#	110306
#	123653
#	133873
#	144844
#	181558
#	210925
#	224643
#	239909
#	266684
#	279949
#	306264
#	318368
#	333109
#	347305
#
# Disc length: 4796 seconds
#
# Revision: 0
# Processed by: cddbd v1.5.1PL2 Copyright (c) Steve Scherf et al.
# Submitted via: CDex 1.51
#
DISCID=3812ba15
DTITLE=George Gershwin - Songbook Summertime
DYEAR=2005
DGENRE=Jazz
TTITLE0=Summertime
TTITLE1=A Foggy Day
TTITLE2=Our Love Is Here to Stay
TTITLE3=They Can't Take That Away from Me
TTITLE4=My Man's Gone Now
TTITLE5=Strike Up The Band
TTITLE6='S Wonderful
TTITLE7=Summertime
TTITLE8=Prelude II
TTITLE9=But Not for Me
TTITLE10=The Man I Love
TTITLE11=It Ain't Necessarily So
TTITLE12=Embraceable You
TTITLE13=Somebody Loves Me
TTITLE14=Nice Work If You Can Get It
TTITLE15=I Got Rythm
TTITLE16=Love Walked In
TTITLE17=They All Laughed
TTITLE18=Who Cares?
TTITLE19=Rhapsody In Blue
TTITLE20=Summertime
EXTD=YEAR: 2005
EXTT0=
EXTT1=
EXTT2=
EXTT3=
EXTT4=
EXTT5=
EXTT6=
EXTT7=
EXTT8=
EXTT9=
EXTT10=
EXTT11=
EXTT12=
EXTT13=
EXTT14=
EXTT15=
EXTT16=
EXTT17=
EXTT18=
EXTT19=
EXTT20=
PLAYORDER=
